<?xml version="1.0" encoding="UTF-8"?>
<!DOCTYPE svg PUBLIC "-//W3C//DTD SVG 1.1//EN" "http://www.w3.org/Graphics/SVG/1.1/DTD/svg11.dtd">
<!-- Creator: CorelDRAW 2018 (64 Bit Versión de evaluación) -->
<svg xmlns="http://www.w3.org/2000/svg" xml:space="preserve" width="21.8058mm" height="3.6039mm" version="1.1" style="shape-rendering:geometricPrecision; text-rendering:geometricPrecision; image-rendering:optimizeQuality; fill-rule:evenodd; clip-rule:evenodd"
viewBox="0 0 189.34 31.29"
 xmlns:xlink="http://www.w3.org/1999/xlink">
 <defs>
  <style type="text/css">
   <![CDATA[
    .fil1 {fill:#313638}
    .fil0 {fill:#313638;fill-rule:nonzero}
   ]]>
  </style>
 </defs>
 <g id="Capa_x0020_1">
  <metadata id="CorelCorpID_0Corel-Layer"/>
  <g id="_1782320491632">
   <path class="fil0" d="M14.38 2.08c0,0.05 0,0.11 -0.01,0.2 -0.01,0.08 -0.02,0.16 -0.04,0.26 -0.02,0.09 -0.05,0.18 -0.08,0.28 -0.03,0.09 -0.08,0.18 -0.13,0.26 -0.05,0.08 -0.11,0.14 -0.19,0.19 -0.08,0.05 -0.16,0.07 -0.26,0.07l-8 0 -1.57 7.85 7.6 0c0.11,0 0.2,0.04 0.26,0.11 0.06,0.08 0.09,0.18 0.09,0.34 0,0.07 -0.01,0.15 -0.02,0.23 -0.01,0.09 -0.03,0.17 -0.05,0.26 -0.02,0.08 -0.04,0.17 -0.08,0.26 -0.03,0.09 -0.08,0.17 -0.13,0.24 -0.05,0.07 -0.11,0.13 -0.18,0.16 -0.07,0.04 -0.15,0.07 -0.25,0.07l-7.58 0 -1.81 9.1c-0.01,0.07 -0.04,0.12 -0.08,0.17 -0.04,0.05 -0.1,0.1 -0.19,0.13 -0.08,0.03 -0.19,0.05 -0.32,0.08 -0.13,0.02 -0.28,0.03 -0.46,0.03 -0.2,0 -0.35,-0.01 -0.47,-0.03 -0.12,-0.02 -0.22,-0.05 -0.29,-0.08 -0.07,-0.03 -0.11,-0.08 -0.13,-0.13 -0.02,-0.05 -0.02,-0.11 0,-0.17l3.85 -19.35c0.08,-0.39 0.23,-0.65 0.46,-0.79 0.23,-0.15 0.45,-0.22 0.64,-0.22l9.06 0c0.14,0 0.23,0.04 0.28,0.14 0.05,0.09 0.07,0.2 0.07,0.34z"/>
   <path id="1" class="fil0" d="M25.56 21.96c-0.03,0.15 -0.12,0.26 -0.26,0.32 -0.14,0.07 -0.37,0.1 -0.7,0.1 -0.16,0 -0.29,-0.01 -0.39,-0.02 -0.1,-0.02 -0.19,-0.04 -0.25,-0.08 -0.07,-0.03 -0.11,-0.07 -0.13,-0.13 -0.02,-0.05 -0.02,-0.11 0,-0.19l0.53 -2.97c-0.14,0.35 -0.39,0.73 -0.75,1.14 -0.37,0.42 -0.8,0.8 -1.31,1.16 -0.51,0.36 -1.07,0.65 -1.7,0.89 -0.62,0.24 -1.25,0.36 -1.89,0.36 -0.87,0 -1.58,-0.15 -2.14,-0.45 -0.56,-0.3 -0.99,-0.69 -1.31,-1.17 -0.32,-0.48 -0.54,-1.03 -0.66,-1.63 -0.11,-0.61 -0.17,-1.21 -0.17,-1.82 0,-0.55 0.05,-1.2 0.16,-1.94 0.1,-0.74 0.28,-1.5 0.52,-2.28 0.25,-0.78 0.56,-1.55 0.93,-2.31 0.38,-0.76 0.84,-1.43 1.4,-2.03 0.55,-0.61 1.19,-1.09 1.92,-1.46 0.73,-0.37 1.56,-0.55 2.5,-0.55 0.98,0 1.8,0.2 2.46,0.59 0.67,0.39 1.27,0.92 1.8,1.59l0.31 -1.56c0.03,-0.15 0.13,-0.26 0.28,-0.32 0.15,-0.07 0.39,-0.1 0.69,-0.1 0.16,0 0.29,0.01 0.4,0.02 0.1,0.02 0.18,0.04 0.24,0.08 0.06,0.04 0.1,0.08 0.11,0.14 0.02,0.05 0.02,0.11 0.01,0.17l-2.61 14.45zm0.13 -10.95c-0.57,-0.82 -1.17,-1.44 -1.81,-1.85 -0.64,-0.41 -1.35,-0.62 -2.14,-0.62 -0.63,0 -1.2,0.15 -1.72,0.45 -0.51,0.3 -0.96,0.7 -1.36,1.2 -0.39,0.5 -0.73,1.05 -1,1.68 -0.28,0.63 -0.51,1.27 -0.69,1.92 -0.18,0.65 -0.31,1.3 -0.4,1.92 -0.08,0.63 -0.13,1.18 -0.13,1.66 0,0.4 0.03,0.82 0.1,1.23 0.06,0.41 0.18,0.79 0.37,1.13 0.18,0.34 0.44,0.62 0.77,0.84 0.33,0.22 0.76,0.33 1.29,0.33 0.64,0 1.28,-0.17 1.93,-0.52 0.65,-0.34 1.25,-0.83 1.8,-1.44 0.56,-0.62 1.05,-1.36 1.48,-2.21 0.43,-0.85 0.75,-1.79 0.94,-2.83l0.55 -2.89z"/>
   <path id="2" class="fil0" d="M44.75 11.97c0,0.61 -0.06,1.29 -0.17,2.04 -0.11,0.75 -0.3,1.52 -0.55,2.31 -0.25,0.78 -0.57,1.55 -0.96,2.29 -0.39,0.75 -0.87,1.41 -1.43,1.99 -0.56,0.58 -1.2,1.05 -1.94,1.41 -0.74,0.35 -1.57,0.53 -2.5,0.53 -0.99,0 -1.83,-0.18 -2.51,-0.56 -0.69,-0.37 -1.3,-0.89 -1.84,-1.55l-0.31 1.53c-0.02,0.15 -0.11,0.26 -0.27,0.32 -0.16,0.07 -0.39,0.1 -0.7,0.1 -0.33,0 -0.55,-0.04 -0.65,-0.11 -0.1,-0.07 -0.14,-0.17 -0.11,-0.3l4.29 -21.55c0.01,-0.07 0.03,-0.12 0.07,-0.17 0.04,-0.05 0.09,-0.1 0.17,-0.14 0.08,-0.04 0.18,-0.07 0.31,-0.08 0.13,-0.02 0.29,-0.02 0.48,-0.02 0.18,0 0.33,0.01 0.45,0.02 0.12,0.02 0.21,0.04 0.27,0.08 0.07,0.04 0.1,0.08 0.12,0.14 0.02,0.05 0.02,0.11 0.01,0.17l-1.35 6.81c-0.07,0.3 -0.14,0.61 -0.21,0.92 -0.08,0.32 -0.16,0.62 -0.24,0.93 -0.09,0.3 -0.17,0.59 -0.24,0.86 -0.08,0.27 -0.15,0.5 -0.21,0.69 0.16,-0.39 0.42,-0.79 0.81,-1.22 0.38,-0.44 0.82,-0.83 1.34,-1.2 0.51,-0.37 1.08,-0.68 1.7,-0.92 0.62,-0.24 1.25,-0.36 1.89,-0.36 0.65,0 1.21,0.09 1.67,0.26 0.46,0.18 0.86,0.41 1.17,0.7 0.31,0.29 0.56,0.61 0.75,0.97 0.19,0.36 0.33,0.74 0.43,1.11 0.1,0.38 0.17,0.74 0.2,1.1 0.03,0.35 0.05,0.66 0.05,0.93zm-2.03 0.14c0,-0.3 -0.03,-0.67 -0.08,-1.08 -0.05,-0.42 -0.17,-0.81 -0.34,-1.18 -0.17,-0.37 -0.43,-0.68 -0.77,-0.93 -0.34,-0.26 -0.78,-0.38 -1.35,-0.38 -0.64,0 -1.29,0.17 -1.94,0.53 -0.65,0.35 -1.25,0.84 -1.82,1.47 -0.56,0.63 -1.06,1.37 -1.5,2.23 -0.44,0.86 -0.76,1.81 -0.96,2.85l-0.58 2.91c0.58,0.82 1.19,1.42 1.83,1.81 0.64,0.39 1.37,0.58 2.16,0.58 0.61,0 1.16,-0.14 1.66,-0.43 0.5,-0.28 0.95,-0.65 1.35,-1.12 0.39,-0.47 0.74,-1 1.03,-1.6 0.29,-0.6 0.53,-1.23 0.73,-1.88 0.19,-0.65 0.34,-1.31 0.43,-1.96 0.1,-0.65 0.15,-1.25 0.15,-1.81z"/>
   <path id="3" class="fil0" d="M53.41 2.66c-0.04,0.25 -0.1,0.45 -0.17,0.62 -0.07,0.16 -0.16,0.3 -0.28,0.4 -0.11,0.1 -0.26,0.17 -0.43,0.22 -0.17,0.04 -0.38,0.07 -0.62,0.07 -0.24,0 -0.44,-0.02 -0.59,-0.07 -0.16,-0.04 -0.27,-0.11 -0.34,-0.22 -0.07,-0.1 -0.1,-0.23 -0.11,-0.4 -0.01,-0.17 0.01,-0.37 0.05,-0.62 0.05,-0.24 0.11,-0.45 0.19,-0.62 0.08,-0.16 0.17,-0.3 0.28,-0.41 0.11,-0.11 0.26,-0.18 0.42,-0.22 0.17,-0.04 0.38,-0.07 0.62,-0.07 0.25,0 0.44,0.02 0.59,0.07 0.15,0.04 0.26,0.11 0.33,0.22 0.08,0.11 0.11,0.24 0.12,0.41 0.01,0.17 -0.02,0.37 -0.07,0.62zm-4.12 19.31c-0.02,0.07 -0.05,0.12 -0.09,0.17 -0.04,0.05 -0.09,0.1 -0.17,0.13 -0.08,0.03 -0.18,0.05 -0.31,0.08 -0.13,0.02 -0.28,0.03 -0.46,0.03 -0.19,0 -0.35,-0.01 -0.46,-0.03 -0.12,-0.02 -0.21,-0.05 -0.27,-0.08 -0.07,-0.03 -0.11,-0.08 -0.13,-0.13 -0.02,-0.05 -0.02,-0.11 0,-0.17l2.87 -14.45c0.01,-0.07 0.04,-0.12 0.08,-0.17 0.03,-0.05 0.09,-0.1 0.17,-0.14 0.08,-0.04 0.18,-0.07 0.32,-0.08 0.13,-0.02 0.29,-0.02 0.48,-0.02 0.19,0 0.33,0.01 0.45,0.02 0.12,0.02 0.21,0.04 0.27,0.08 0.07,0.04 0.1,0.08 0.12,0.14 0.02,0.05 0.02,0.11 0.01,0.17l-2.88 14.45z"/>
   <path id="4" class="fil0" d="M65.94 21.96c-0.03,0.15 -0.12,0.26 -0.26,0.32 -0.14,0.07 -0.37,0.1 -0.7,0.1 -0.16,0 -0.29,-0.01 -0.39,-0.02 -0.1,-0.02 -0.19,-0.04 -0.25,-0.08 -0.07,-0.03 -0.11,-0.07 -0.13,-0.13 -0.02,-0.05 -0.02,-0.11 0,-0.19l0.53 -2.97c-0.14,0.35 -0.39,0.73 -0.75,1.14 -0.37,0.42 -0.8,0.8 -1.31,1.16 -0.51,0.36 -1.07,0.65 -1.7,0.89 -0.62,0.24 -1.25,0.36 -1.89,0.36 -0.87,0 -1.58,-0.15 -2.14,-0.45 -0.56,-0.3 -0.99,-0.69 -1.31,-1.17 -0.32,-0.48 -0.54,-1.03 -0.66,-1.63 -0.11,-0.61 -0.17,-1.21 -0.17,-1.82 0,-0.55 0.05,-1.2 0.16,-1.94 0.1,-0.74 0.28,-1.5 0.52,-2.28 0.25,-0.78 0.56,-1.55 0.93,-2.31 0.38,-0.76 0.84,-1.43 1.4,-2.03 0.55,-0.61 1.19,-1.09 1.92,-1.46 0.73,-0.37 1.56,-0.55 2.5,-0.55 0.98,0 1.8,0.2 2.46,0.59 0.67,0.39 1.27,0.92 1.8,1.59l0.31 -1.56c0.03,-0.15 0.13,-0.26 0.28,-0.32 0.15,-0.07 0.39,-0.1 0.69,-0.1 0.16,0 0.29,0.01 0.4,0.02 0.1,0.02 0.18,0.04 0.24,0.08 0.06,0.04 0.1,0.08 0.11,0.14 0.02,0.05 0.02,0.11 0.01,0.17l-2.61 14.45zm0.13 -10.95c-0.57,-0.82 -1.17,-1.44 -1.81,-1.85 -0.64,-0.41 -1.35,-0.62 -2.14,-0.62 -0.63,0 -1.2,0.15 -1.72,0.45 -0.51,0.3 -0.96,0.7 -1.36,1.2 -0.39,0.5 -0.73,1.05 -1,1.68 -0.28,0.63 -0.51,1.27 -0.69,1.92 -0.18,0.65 -0.31,1.3 -0.4,1.92 -0.08,0.63 -0.13,1.18 -0.13,1.66 0,0.4 0.03,0.82 0.1,1.23 0.06,0.41 0.18,0.79 0.37,1.13 0.18,0.34 0.44,0.62 0.77,0.84 0.33,0.22 0.76,0.33 1.29,0.33 0.64,0 1.28,-0.17 1.93,-0.52 0.65,-0.34 1.25,-0.83 1.8,-1.44 0.56,-0.62 1.05,-1.36 1.48,-2.21 0.43,-0.85 0.75,-1.79 0.94,-2.83l0.55 -2.89z"/>
   <path id="5" class="fil0" d="M84.55 10.7c0,0.38 -0.02,0.74 -0.07,1.1 -0.04,0.36 -0.1,0.72 -0.17,1.1l-1.81 9.07c-0.02,0.07 -0.05,0.12 -0.09,0.17 -0.04,0.05 -0.1,0.1 -0.17,0.13 -0.08,0.03 -0.19,0.05 -0.31,0.08 -0.12,0.02 -0.28,0.03 -0.47,0.03 -0.18,0 -0.33,-0.01 -0.45,-0.03 -0.12,-0.02 -0.21,-0.05 -0.27,-0.08 -0.07,-0.03 -0.11,-0.08 -0.13,-0.13 -0.02,-0.05 -0.02,-0.11 -0.01,-0.17l1.8 -9.07c0.07,-0.38 0.13,-0.73 0.16,-1.06 0.03,-0.33 0.05,-0.62 0.05,-0.87 0,-0.75 -0.16,-1.34 -0.48,-1.79 -0.32,-0.45 -0.84,-0.67 -1.59,-0.67 -0.64,0 -1.29,0.17 -1.94,0.53 -0.65,0.35 -1.25,0.84 -1.82,1.46 -0.56,0.63 -1.06,1.37 -1.49,2.23 -0.44,0.86 -0.75,1.81 -0.95,2.83l-1.28 6.4c-0.02,0.07 -0.05,0.12 -0.09,0.17 -0.04,0.05 -0.1,0.1 -0.17,0.13 -0.08,0.03 -0.18,0.05 -0.31,0.08 -0.13,0.02 -0.28,0.03 -0.46,0.03 -0.19,0 -0.35,-0.01 -0.46,-0.03 -0.12,-0.02 -0.21,-0.05 -0.27,-0.08 -0.07,-0.03 -0.11,-0.08 -0.13,-0.13 -0.02,-0.05 -0.02,-0.11 0.01,-0.17l2.87 -14.45c0.01,-0.07 0.04,-0.12 0.07,-0.17 0.04,-0.05 0.09,-0.1 0.17,-0.14 0.08,-0.04 0.17,-0.07 0.28,-0.08 0.12,-0.02 0.26,-0.02 0.41,-0.02 0.16,0 0.29,0.01 0.4,0.02 0.11,0.02 0.19,0.04 0.25,0.08 0.06,0.04 0.1,0.08 0.11,0.14 0.02,0.05 0.02,0.11 0.01,0.17l-0.57 2.95c0.14,-0.35 0.39,-0.74 0.75,-1.16 0.37,-0.42 0.8,-0.81 1.3,-1.17 0.51,-0.36 1.07,-0.65 1.69,-0.89 0.62,-0.23 1.26,-0.35 1.94,-0.35 0.69,0 1.27,0.11 1.74,0.32 0.47,0.21 0.85,0.5 1.14,0.84 0.28,0.36 0.49,0.76 0.61,1.21 0.13,0.46 0.19,0.93 0.19,1.42z"/>
   <path id="6" class="fil0" d="M117.11 21.96c-0.02,0.07 -0.05,0.12 -0.1,0.17 -0.04,0.05 -0.1,0.1 -0.19,0.13 -0.08,0.03 -0.19,0.06 -0.32,0.08 -0.13,0.02 -0.28,0.03 -0.46,0.03 -0.18,0 -0.33,-0.01 -0.46,-0.03 -0.12,-0.02 -0.22,-0.05 -0.29,-0.08 -0.07,-0.03 -0.11,-0.07 -0.13,-0.13 -0.02,-0.05 -0.03,-0.11 -0.02,-0.17l3.71 -18.65 0 0 -11.89 18.75c-0.07,0.09 -0.17,0.16 -0.31,0.22 -0.14,0.06 -0.36,0.09 -0.65,0.09 -0.29,0 -0.5,-0.03 -0.62,-0.09 -0.11,-0.06 -0.18,-0.13 -0.19,-0.22l-4.01 -18.75 0 0 -3.72 18.65c-0.02,0.07 -0.05,0.12 -0.09,0.17 -0.04,0.05 -0.11,0.1 -0.2,0.13 -0.08,0.03 -0.19,0.06 -0.32,0.08 -0.13,0.02 -0.28,0.03 -0.46,0.03 -0.18,0 -0.34,-0.01 -0.46,-0.03 -0.13,-0.02 -0.22,-0.05 -0.28,-0.08 -0.07,-0.03 -0.1,-0.07 -0.13,-0.13 -0.02,-0.05 -0.02,-0.11 0,-0.17l3.85 -19.35c0.03,-0.2 0.09,-0.35 0.17,-0.48 0.09,-0.13 0.18,-0.23 0.29,-0.31 0.1,-0.08 0.21,-0.14 0.33,-0.17 0.11,-0.03 0.21,-0.05 0.31,-0.05l1.04 0c0.26,0 0.49,0.03 0.66,0.09 0.17,0.06 0.32,0.14 0.45,0.26 0.12,0.11 0.22,0.25 0.28,0.41 0.07,0.17 0.13,0.35 0.17,0.57l3.54 16.39 0.08 0 10.39 -16.39c0.13,-0.2 0.26,-0.38 0.39,-0.54 0.14,-0.16 0.28,-0.3 0.45,-0.42 0.16,-0.11 0.34,-0.21 0.53,-0.27 0.19,-0.07 0.4,-0.1 0.64,-0.1l1.18 0c0.09,0 0.19,0.02 0.28,0.05 0.1,0.03 0.19,0.09 0.26,0.17 0.08,0.08 0.13,0.18 0.15,0.31 0.03,0.13 0.02,0.28 -0.01,0.48l-3.85 19.35z"/>
   <path id="7" class="fil0" d="M128.81 2.66c-0.04,0.25 -0.1,0.45 -0.17,0.62 -0.07,0.16 -0.16,0.3 -0.28,0.4 -0.11,0.1 -0.26,0.17 -0.43,0.22 -0.17,0.04 -0.38,0.07 -0.62,0.07 -0.24,0 -0.44,-0.02 -0.59,-0.07 -0.16,-0.04 -0.27,-0.11 -0.34,-0.22 -0.07,-0.1 -0.1,-0.23 -0.11,-0.4 -0.01,-0.17 0.01,-0.37 0.05,-0.62 0.05,-0.24 0.11,-0.45 0.19,-0.62 0.08,-0.16 0.17,-0.3 0.28,-0.41 0.11,-0.11 0.26,-0.18 0.42,-0.22 0.17,-0.04 0.38,-0.07 0.62,-0.07 0.25,0 0.44,0.02 0.59,0.07 0.15,0.04 0.26,0.11 0.33,0.22 0.08,0.11 0.11,0.24 0.12,0.41 0.01,0.17 -0.02,0.37 -0.07,0.62zm-4.12 19.31c-0.02,0.07 -0.05,0.12 -0.09,0.17 -0.04,0.05 -0.09,0.1 -0.17,0.13 -0.08,0.03 -0.18,0.05 -0.31,0.08 -0.13,0.02 -0.28,0.03 -0.46,0.03 -0.19,0 -0.35,-0.01 -0.46,-0.03 -0.12,-0.02 -0.21,-0.05 -0.27,-0.08 -0.07,-0.03 -0.11,-0.08 -0.13,-0.13 -0.02,-0.05 -0.02,-0.11 0,-0.17l2.87 -14.45c0.01,-0.07 0.04,-0.12 0.08,-0.17 0.03,-0.05 0.09,-0.1 0.17,-0.14 0.08,-0.04 0.18,-0.07 0.32,-0.08 0.13,-0.02 0.29,-0.02 0.48,-0.02 0.19,0 0.33,0.01 0.45,0.02 0.12,0.02 0.21,0.04 0.27,0.08 0.07,0.04 0.1,0.08 0.12,0.14 0.02,0.05 0.02,0.11 0.01,0.17l-2.88 14.45z"/>
   <path id="8" class="fil0" d="M143.38 10.7c0,0.38 -0.02,0.74 -0.07,1.1 -0.04,0.36 -0.1,0.72 -0.17,1.1l-1.81 9.07c-0.02,0.07 -0.05,0.12 -0.09,0.17 -0.04,0.05 -0.1,0.1 -0.17,0.13 -0.08,0.03 -0.19,0.05 -0.31,0.08 -0.12,0.02 -0.28,0.03 -0.47,0.03 -0.18,0 -0.33,-0.01 -0.45,-0.03 -0.12,-0.02 -0.21,-0.05 -0.27,-0.08 -0.07,-0.03 -0.11,-0.08 -0.13,-0.13 -0.02,-0.05 -0.02,-0.11 -0.01,-0.17l1.8 -9.07c0.07,-0.38 0.13,-0.73 0.16,-1.06 0.03,-0.33 0.05,-0.62 0.05,-0.87 0,-0.75 -0.16,-1.34 -0.48,-1.79 -0.32,-0.45 -0.84,-0.67 -1.59,-0.67 -0.64,0 -1.29,0.17 -1.94,0.53 -0.65,0.35 -1.25,0.84 -1.82,1.46 -0.56,0.63 -1.06,1.37 -1.49,2.23 -0.44,0.86 -0.75,1.81 -0.95,2.83l-1.28 6.4c-0.02,0.07 -0.05,0.12 -0.09,0.17 -0.04,0.05 -0.1,0.1 -0.17,0.13 -0.08,0.03 -0.18,0.05 -0.31,0.08 -0.13,0.02 -0.28,0.03 -0.46,0.03 -0.19,0 -0.35,-0.01 -0.46,-0.03 -0.12,-0.02 -0.21,-0.05 -0.27,-0.08 -0.07,-0.03 -0.11,-0.08 -0.13,-0.13 -0.02,-0.05 -0.02,-0.11 0.01,-0.17l2.87 -14.45c0.01,-0.07 0.04,-0.12 0.07,-0.17 0.04,-0.05 0.09,-0.1 0.17,-0.14 0.08,-0.04 0.17,-0.07 0.28,-0.08 0.12,-0.02 0.26,-0.02 0.41,-0.02 0.16,0 0.29,0.01 0.4,0.02 0.11,0.02 0.19,0.04 0.25,0.08 0.06,0.04 0.1,0.08 0.11,0.14 0.02,0.05 0.02,0.11 0.01,0.17l-0.57 2.95c0.14,-0.35 0.39,-0.74 0.75,-1.16 0.37,-0.42 0.8,-0.81 1.3,-1.17 0.51,-0.36 1.07,-0.65 1.69,-0.89 0.62,-0.23 1.26,-0.35 1.94,-0.35 0.69,0 1.27,0.11 1.74,0.32 0.47,0.21 0.85,0.5 1.14,0.84 0.28,0.36 0.49,0.76 0.61,1.21 0.13,0.46 0.19,0.93 0.19,1.42z"/>
   <path id="9" class="fil0" d="M160.53 12.25c0,0.8 -0.08,1.61 -0.22,2.43 -0.15,0.82 -0.38,1.61 -0.68,2.37 -0.3,0.76 -0.68,1.47 -1.14,2.14 -0.46,0.67 -0.99,1.25 -1.61,1.74 -0.61,0.49 -1.3,0.88 -2.07,1.17 -0.77,0.29 -1.61,0.43 -2.54,0.43 -0.99,0 -1.84,-0.12 -2.54,-0.36 -0.7,-0.25 -1.27,-0.6 -1.72,-1.06 -0.45,-0.46 -0.77,-1.03 -0.98,-1.7 -0.21,-0.67 -0.31,-1.41 -0.31,-2.24 0,-0.8 0.08,-1.61 0.22,-2.43 0.15,-0.82 0.38,-1.6 0.68,-2.36 0.3,-0.76 0.68,-1.47 1.14,-2.14 0.46,-0.67 0.99,-1.25 1.61,-1.74 0.61,-0.49 1.3,-0.88 2.07,-1.17 0.77,-0.29 1.61,-0.43 2.54,-0.43 0.99,0 1.84,0.12 2.54,0.36 0.7,0.25 1.27,0.6 1.72,1.06 0.45,0.46 0.77,1.02 0.98,1.68 0.21,0.66 0.31,1.41 0.31,2.24zm-2.03 0.1c0,-0.58 -0.07,-1.11 -0.19,-1.58 -0.13,-0.47 -0.34,-0.87 -0.63,-1.19 -0.29,-0.33 -0.68,-0.58 -1.14,-0.75 -0.47,-0.17 -1.04,-0.26 -1.71,-0.26 -0.7,0 -1.34,0.12 -1.9,0.36 -0.57,0.24 -1.08,0.56 -1.53,0.97 -0.45,0.41 -0.84,0.89 -1.18,1.44 -0.33,0.56 -0.61,1.15 -0.83,1.78 -0.22,0.63 -0.38,1.29 -0.49,1.96 -0.1,0.68 -0.16,1.35 -0.16,2.01 0,0.58 0.07,1.11 0.19,1.58 0.13,0.47 0.34,0.87 0.63,1.19 0.29,0.33 0.68,0.58 1.14,0.75 0.47,0.17 1.04,0.26 1.71,0.26 0.7,0 1.34,-0.12 1.9,-0.36 0.57,-0.24 1.08,-0.57 1.53,-0.98 0.45,-0.41 0.84,-0.9 1.18,-1.45 0.33,-0.56 0.61,-1.15 0.83,-1.78 0.22,-0.63 0.38,-1.29 0.49,-1.96 0.1,-0.67 0.16,-1.34 0.16,-2z"/>
   <path id="10" class="fil0" d="M185.12 21.96c-0.02,0.07 -0.05,0.12 -0.09,0.17 -0.04,0.05 -0.1,0.1 -0.18,0.13 -0.08,0.03 -0.18,0.06 -0.31,0.08 -0.13,0.02 -0.28,0.03 -0.46,0.03 -0.19,0 -0.34,-0.01 -0.46,-0.03 -0.11,-0.02 -0.21,-0.05 -0.27,-0.08 -0.07,-0.03 -0.11,-0.07 -0.13,-0.13 -0.02,-0.05 -0.02,-0.11 0,-0.17l2.64 -13.19 -8 0 -1.74 8.74c-0.05,0.24 -0.09,0.52 -0.13,0.84 -0.03,0.31 -0.05,0.57 -0.05,0.77 0,0.61 0.12,1.05 0.36,1.33 0.24,0.28 0.64,0.42 1.21,0.42 0.3,0 0.56,-0.03 0.78,-0.08 0.22,-0.05 0.42,-0.11 0.59,-0.17 0.17,-0.07 0.32,-0.12 0.44,-0.17 0.12,-0.05 0.23,-0.08 0.33,-0.08 0.09,0 0.15,0.03 0.19,0.08 0.04,0.05 0.07,0.15 0.07,0.29 0,0.1 -0.01,0.22 -0.03,0.33 -0.02,0.12 -0.04,0.23 -0.07,0.35 -0.03,0.11 -0.07,0.21 -0.12,0.3 -0.05,0.09 -0.1,0.17 -0.17,0.23 -0.07,0.08 -0.19,0.15 -0.35,0.21 -0.16,0.07 -0.34,0.13 -0.55,0.18 -0.21,0.05 -0.43,0.09 -0.65,0.13 -0.22,0.03 -0.44,0.05 -0.64,0.05 -0.57,0 -1.07,-0.06 -1.49,-0.19 -0.42,-0.12 -0.77,-0.31 -1.05,-0.57 -0.28,-0.26 -0.48,-0.59 -0.62,-0.98 -0.13,-0.39 -0.2,-0.86 -0.2,-1.41 0,-0.13 0.01,-0.27 0.02,-0.42 0.02,-0.16 0.04,-0.32 0.06,-0.48 0.02,-0.17 0.04,-0.33 0.07,-0.51 0.03,-0.17 0.05,-0.33 0.09,-0.47l1.76 -8.71 -7.7 0 -1.76 8.74c-0.04,0.24 -0.08,0.52 -0.12,0.84 -0.04,0.31 -0.05,0.57 -0.05,0.77 0,0.61 0.11,1.05 0.35,1.33 0.24,0.28 0.64,0.42 1.21,0.42 0.29,0 0.56,-0.03 0.79,-0.08 0.23,-0.05 0.43,-0.11 0.59,-0.17 0.17,-0.07 0.32,-0.12 0.44,-0.17 0.13,-0.05 0.23,-0.08 0.31,-0.08 0.09,0 0.15,0.03 0.2,0.08 0.05,0.05 0.07,0.15 0.07,0.29 0,0.1 -0.01,0.22 -0.03,0.33 -0.02,0.12 -0.05,0.23 -0.08,0.35 -0.03,0.11 -0.07,0.21 -0.12,0.3 -0.04,0.09 -0.1,0.17 -0.16,0.23 -0.08,0.08 -0.19,0.15 -0.35,0.21 -0.16,0.07 -0.34,0.13 -0.55,0.18 -0.21,0.05 -0.42,0.09 -0.64,0.13 -0.22,0.03 -0.44,0.05 -0.64,0.05 -0.57,0 -1.07,-0.06 -1.48,-0.19 -0.41,-0.12 -0.76,-0.31 -1.04,-0.57 -0.27,-0.26 -0.48,-0.59 -0.61,-0.98 -0.14,-0.39 -0.2,-0.86 -0.2,-1.41 0,-0.13 0.01,-0.27 0.02,-0.42 0.01,-0.16 0.03,-0.32 0.05,-0.48 0.03,-0.17 0.05,-0.33 0.08,-0.51 0.03,-0.17 0.05,-0.33 0.09,-0.47l1.74 -8.71 -2.15 0c-0.11,0 -0.19,-0.03 -0.25,-0.09 -0.05,-0.06 -0.09,-0.18 -0.09,-0.35 0,-0.14 0.01,-0.28 0.03,-0.42 0.02,-0.14 0.06,-0.26 0.11,-0.38 0.05,-0.11 0.12,-0.2 0.21,-0.27 0.08,-0.07 0.19,-0.1 0.3,-0.1l2.16 0 0.72 -3.54c0.01,-0.07 0.04,-0.12 0.08,-0.17 0.04,-0.05 0.1,-0.1 0.19,-0.14 0.08,-0.04 0.18,-0.07 0.3,-0.08 0.12,-0.02 0.28,-0.02 0.47,-0.02 0.18,0 0.33,0.01 0.45,0.02 0.12,0.02 0.21,0.04 0.27,0.08 0.07,0.04 0.1,0.08 0.12,0.14 0.02,0.05 0.02,0.11 0.01,0.17l-0.7 3.54 7.7 0 0.83 -4.2c0.01,-0.07 0.04,-0.12 0.08,-0.17 0.04,-0.05 0.1,-0.1 0.18,-0.13 0.08,-0.03 0.18,-0.05 0.3,-0.08 0.12,-0.02 0.28,-0.03 0.47,-0.03 0.19,0 0.33,0.01 0.45,0.03 0.12,0.02 0.21,0.05 0.27,0.08 0.07,0.03 0.11,0.08 0.13,0.13 0.02,0.05 0.03,0.11 0.02,0.17l-0.83 4.2 9.27 0c0.24,0 0.39,0.06 0.45,0.19 0.06,0.12 0.07,0.29 0.02,0.5l-2.81 14.11zm4.14 -19.34c-0.04,0.25 -0.1,0.45 -0.17,0.62 -0.07,0.16 -0.16,0.3 -0.28,0.4 -0.12,0.1 -0.26,0.17 -0.44,0.22 -0.17,0.04 -0.38,0.07 -0.62,0.07 -0.24,0 -0.44,-0.02 -0.6,-0.07 -0.15,-0.04 -0.26,-0.11 -0.33,-0.22 -0.07,-0.1 -0.11,-0.23 -0.11,-0.4 -0.01,-0.17 0.02,-0.37 0.06,-0.62 0.05,-0.25 0.11,-0.45 0.19,-0.62 0.07,-0.16 0.16,-0.3 0.28,-0.41 0.11,-0.11 0.25,-0.18 0.42,-0.22 0.17,-0.04 0.38,-0.07 0.62,-0.07 0.25,0 0.44,0.02 0.59,0.07 0.15,0.04 0.26,0.11 0.34,0.22 0.07,0.11 0.11,0.25 0.12,0.41 0.01,0.17 -0.02,0.37 -0.07,0.62z"/>
   <polygon class="fil1" points="44.18,25.78 184.51,25.78 183.4,31.29 "/>
  </g>
 </g>
</svg>
